<?xml version="1.0" encoding="utf-8"?>
<!-- Generator: Adobe Illustrator 21.1.0, SVG Export Plug-In . SVG Version: 6.00 Build 0)  -->
<svg version="1.1" id="圖層_1" xmlns="http://www.w3.org/2000/svg" xmlns:xlink="http://www.w3.org/1999/xlink" x="0px" y="0px"
	 viewBox="0 0 200 200" style="enable-background:new 0 0 200 200;" xml:space="preserve">
<style type="text/css">
	.st0{fill:#FFFFFF;}
</style>
<g>
	<g>
		<g>
			<g>
				<path class="st0" d="M132.2,140.5c-3.1-2.1-6.8-3.1-10.5-4.1c-0.8-0.2-1.6-0.4-2.4-0.7c-4.5-1.3-7.3-3.9-7.7-6.9
					c-0.3-2.4,1.2-4.8,3.9-6.3c0.6-0.3,1.2-0.6,1.9-0.7v5.4c0,2,1.6,3.7,3.7,3.7c2,0,3.7-1.6,3.7-3.7V122c2.1,0.5,4.2,1.4,5.9,2.4
					s4,0.5,5-1.2s0.5-4-1.2-5c-2.7-1.6-6.1-3-9.7-3.6V112c0-2-1.6-3.7-3.7-3.7c-2,0-3.7,1.6-3.7,3.7v2.4c-1.9,0.3-3.8,0.8-5.4,1.8
					c-5.3,2.9-8.3,8.1-7.7,13.5c0.7,6.1,5.5,11,12.9,13.1c0.1,0,0.2,0,0.3,0.1V160c-3-0.5-5.5-1.8-6.3-3.3c-0.9-1.8-3.1-2.5-4.9-1.6
					s-2.5,3.1-1.6,4.9c2.2,4.3,7.4,6.7,12.8,7.3v3.8c0,2,1.6,3.7,3.7,3.7c2,0,3.7-1.6,3.7-3.7V167c0.8-0.1,1.5-0.3,2.2-0.6
					c5.7-1.8,10-6.8,10.8-12.7C138.7,148.5,136.5,143.5,132.2,140.5z M130.7,152.8c-0.5,3.2-2.7,5.8-5.8,6.8l0,0V145
					c1.2,0.5,2.3,1,3.2,1.6C131,148.5,130.9,151.6,130.7,152.8z"/>
				<path class="st0" d="M121.2,94.1c-1.2,0-2.4,0-3.7,0.1V31.1c0-3.8-2.7-9.2-15.4-13.2c-8.6-2.7-20-4.2-32.1-4.2S46.6,15.3,38,18
					c-12.7,4-15.4,9.4-15.4,13.2v110.4c0,3.8,2.7,9.2,15.4,13.2c8.6,2.7,20,4.2,32.1,4.2c2.3,0,4.6-0.1,6.9-0.2
					c6.9,17.7,24.1,30.3,44.2,30.3c26.2,0,47.5-21.3,47.5-47.5C168.6,115.4,147.4,94.1,121.2,94.1z M40.2,24.9
					c7.9-2.5,18.5-3.8,29.9-3.8c11.3,0,22,1.4,29.9,3.8c8.4,2.6,10.3,5.4,10.3,6.2s-1.9,3.6-10.3,6.2c-7.9,2.5-18.5,3.8-29.9,3.8
					s-22-1.4-29.9-3.8c-8.4-2.6-10.3-5.4-10.3-6.2C29.9,30.4,31.8,27.6,40.2,24.9z M29.9,40.9c2.1,1.2,4.7,2.3,8.1,3.4
					c8.6,2.7,20,4.2,32.1,4.2s23.4-1.5,32.1-4.2c3.4-1,6-2.2,8.1-3.4v8.6c0,0.8-1.9,3.6-10.3,6.2c-7.9,2.5-18.5,3.8-29.9,3.8
					c-5.3,0-10.4-0.3-15.3-0.9c-2-0.2-3.8,1.2-4.1,3.2c-0.2,2,1.2,3.8,3.2,4.1c5.2,0.6,10.6,0.9,16.1,0.9c12.1,0,23.4-1.5,32.1-4.2
					c3.4-1,6-2.2,8.1-3.4v27c0,0.8-1.9,3.6-10.3,6.2c-7.9,2.6-18.5,4-29.8,4s-22-1.4-29.9-3.8c-8.4-2.6-10.3-5.4-10.3-6.2v-8.6
					c2.1,1.2,4.7,2.3,8.1,3.4c8.6,2.7,20,4.2,32.1,4.2c7.2,0,14.1-0.5,20.5-1.5c2-0.3,3.3-2.2,3-4.2s-2.2-3.3-4.2-3
					C83.5,77.5,76.8,78,70.1,78c-11.3,0-22-1.4-29.9-3.8c-8.4-2.6-10.3-5.4-10.3-6.2L29.9,40.9L29.9,40.9z M70.1,151.6
					c-11.3,0-22-1.4-29.9-3.8c-8.4-2.6-10.3-5.4-10.3-6.2V133c2.1,1.2,4.7,2.3,8.1,3.4c8.6,2.7,20,4.2,32.1,4.2c1.2,0,2.4,0,3.7,0
					c0,0.4,0,0.7,0,1.1c0,0.4,0,0.8,0,1.2c0,0.1,0,0.3,0,0.4c0,0.3,0,0.6,0,0.9c0,0.2,0,0.3,0,0.5c0,0.3,0,0.5,0,0.8
					c0,0.2,0,0.3,0,0.5s0,0.5,0.1,0.7c0,0.2,0,0.4,0.1,0.6c0,0.2,0,0.4,0.1,0.7c0,0.2,0.1,0.4,0.1,0.6c0,0.2,0.1,0.4,0.1,0.6
					c0,0.2,0.1,0.4,0.1,0.7c0,0.2,0.1,0.3,0.1,0.5s0.1,0.5,0.1,0.7c0,0.1,0.1,0.3,0.1,0.4c0,0.1,0,0.2,0.1,0.3
					C73.2,151.6,71.7,151.6,70.1,151.6z M77.9,122C77.9,122.1,77.9,122.1,77.9,122c-0.1,0.3-0.3,0.6-0.4,0.9c0,0.1-0.1,0.2-0.1,0.2
					c-0.1,0.1-0.1,0.3-0.2,0.4c-1.3,3-2.2,6.2-2.8,9.6c-1.5,0-2.9,0.1-4.4,0.1c-11.3,0-22-1.4-29.9-3.8c-8.4-2.6-10.3-5.4-10.3-6.2
					v-27l0,0c2.1,1.2,4.7,2.3,8.1,3.4c8.6,2.7,20,4.2,32.1,4.2c9.6,0,18.8-0.9,26.5-2.7c-4.3,2.6-8.2,5.9-11.5,9.8
					c-1,1.1-1.9,2.3-2.7,3.5c-4,0.4-8.1,0.6-12.3,0.6c-5.3,0-10.4-0.3-15.3-0.9c-2-0.2-3.8,1.2-4.1,3.2c-0.2,2,1.2,3.8,3.2,4.1
					c5.2,0.6,10.6,0.9,16.1,0.9c2.7,0,5.3-0.1,7.9-0.2C78,121.9,78,122,77.9,122z M121.2,181.7c-18,0-33.2-11.9-38.3-28.2
					c-0.1-0.2-0.1-0.4-0.2-0.6c-0.1-0.3-0.2-0.7-0.3-1c-0.1-0.2-0.1-0.5-0.2-0.7c0-0.2-0.1-0.4-0.1-0.6c-0.1-0.4-0.2-0.8-0.2-1.2
					c0-0.2-0.1-0.3-0.1-0.5c-0.1-0.3-0.1-0.7-0.2-1c0-0.1,0-0.2-0.1-0.3c-0.1-0.4-0.1-0.9-0.2-1.3c0-0.1,0-0.3,0-0.4
					c0-0.4-0.1-0.8-0.1-1.3v-0.1c0-0.5-0.1-0.9-0.1-1.4c0-0.1,0-0.2,0-0.3c0-0.5,0-0.9,0-1.4c0-0.6,0-1.1,0-1.7c0-0.1,0-0.2,0-0.3
					c0-0.5,0.1-1,0.1-1.5c0-0.2,0-0.3,0-0.5c0-0.4,0.1-0.9,0.1-1.3c0-0.2,0.1-0.5,0.1-0.7s0.1-0.4,0.1-0.6c0.1-0.5,0.2-1,0.3-1.5
					l0,0c3-14.7,14-26.4,28.3-30.5c0.1,0,0.1,0,0.2,0c0.3-0.1,0.7-0.2,1-0.3c0.4-0.1,0.8-0.2,1.1-0.3c0.1,0,0.3-0.1,0.4-0.1
					c0.5-0.1,1-0.2,1.5-0.3c2.2-0.4,4.5-0.6,6.8-0.6c22.1,0,40.2,18,40.2,40.2C161.3,163.7,143.3,181.7,121.2,181.7z"/>
				<path class="st0" d="M41,63.6c0.6,0.1,1.1,0.3,1.7,0.4c0.3,0.1,0.6,0.1,0.8,0.1c1.7,0,3.1-1.1,3.5-2.8c0.5-2-0.7-3.9-2.7-4.4
					c-0.5-0.1-1.1-0.3-1.6-0.4c-2-0.5-3.9,0.6-4.5,2.6C37.9,61.1,39.1,63,41,63.6z"/>
				<path class="st0" d="M100.3,81.5c0.3,0,0.7,0,1-0.2c0.7-0.2,1.4-0.4,2.2-0.7c1.9-0.6,2.9-2.7,2.3-4.6s-2.7-2.9-4.6-2.3
					c-0.6,0.2-1.3,0.4-1.9,0.6c-1.9,0.6-3,2.6-2.5,4.5C97.3,80.5,98.7,81.5,100.3,81.5z"/>
				<path class="st0" d="M44.4,112.1c-0.5-0.1-1.1-0.3-1.6-0.4c-1.9-0.5-3.9,0.7-4.5,2.6c-0.5,1.9,0.7,3.9,2.6,4.5
					c0.6,0.1,1.1,0.3,1.7,0.4c0.3,0.1,0.6,0.1,0.8,0.1c1.7,0,3.2-1.1,3.5-2.8C47.6,114.5,46.4,112.6,44.4,112.1z"/>
			</g>
		</g>
	</g>
	<path class="st0" d="M137.5,57.3c-1.3,1.3-1.3,3.3,0,4.6l17.2,17.2c0.6,0.6,1.5,1,2.3,1s1.7-0.3,2.3-1l17.2-17.2
		c1.3-1.3,1.3-3.3,0-4.6s-3.3-1.3-4.6,0L160.2,69V13.2c0-1.8-1.4-3.2-3.2-3.2s-3.2,1.4-3.2,3.2V69l-11.7-11.7
		C140.8,56,138.7,56,137.5,57.3z"/>
</g>
</svg>
