<?xml version="1.0" encoding="utf-8"?>
<!-- Generator: Adobe Illustrator 21.1.0, SVG Export Plug-In . SVG Version: 6.00 Build 0)  -->
<svg version="1.1" id="圖層_1" xmlns="http://www.w3.org/2000/svg" xmlns:xlink="http://www.w3.org/1999/xlink" x="0px" y="0px"
	 viewBox="0 0 200 200" style="enable-background:new 0 0 200 200;" xml:space="preserve">
<style type="text/css">
	.st0{fill:#FFFFFF;}
</style>
<g>
	<g>
		<g>
			<g>
				<path class="st0" d="M161.5,95.7c-4.6,0-8.4,3.8-8.4,8.4v36.3h-19.6c-4.6,0-8.4,3.8-8.4,8.4s3.8,8.4,8.4,8.4h14v22.4h-8.4
					c-1.5,0-2.8,1.3-2.8,2.8c0,1.5,1.3,2.8,2.8,2.8h22.4c1.5,0,2.8-1.3,2.8-2.8c0-1.5-1.3-2.8-2.8-2.8h-8.4v-22.4h8.4
					c4.6,0,8.4-3.8,8.4-8.4V104C169.9,99.4,166.1,95.7,161.5,95.7z M164.3,148.8c0,1.5-1.3,2.8-2.8,2.8h-28c-1.5,0-2.8-1.3-2.8-2.8
					c0-1.5,1.3-2.8,2.8-2.8h22.4c1.5,0,2.8-1.3,2.8-2.8V104c0-1.5,1.3-2.8,2.8-2.8c1.5,0,2.8,1.3,2.8,2.8V148.8z"/>
				<path class="st0" d="M72,140.4H52.5V104c0-4.6-3.8-8.4-8.4-8.4s-8.4,3.8-8.4,8.4v44.7c0,4.6,3.8,8.4,8.4,8.4h8.4v22.4h-8.4
					c-1.5,0-2.8,1.3-2.8,2.8c0,1.5,1.3,2.8,2.8,2.8h22.4c1.5,0,2.8-1.3,2.8-2.8c0-1.5-1.3-2.8-2.8-2.8H58v-22.4h14
					c4.6,0,8.4-3.8,8.4-8.4S76.6,140.4,72,140.4z M72,151.6h-28c-1.5,0-2.8-1.3-2.8-2.8V104c0-1.5,1.3-2.8,2.8-2.8
					c1.5,0,2.8,1.3,2.8,2.8v39.1c0,1.5,1.3,2.8,2.8,2.8H72c1.5,0,2.8,1.3,2.8,2.8C74.8,150.3,73.6,151.6,72,151.6z"/>
				<path class="st0" d="M110.4,137.2c2.4,1.5,5.2,3.2,10.6,3.2c5.3,0,8.1-1.7,10.6-3.2c2.2-1.3,3.9-2.4,7.6-2.4
					c1.5,0,2.8-1.3,2.8-2.8v-8.4c0-6.2-5-11.2-11.2-11.2H74.8c-6.2,0-11.2,5-11.2,11.2v8.4c0,1.5,1.3,2.8,2.8,2.8
					c3.7,0,5.4,1.1,7.6,2.4c2.4,1.5,5.2,3.2,10.5,3.2c5.3,0,8.1-1.7,10.5-3.2c1.5-0.9,2.9-1.7,4.9-2.1v44.5H88.8
					c-1.5,0-2.8,1.3-2.8,2.8c0,1.5,1.3,2.8,2.8,2.8h28c1.5,0,2.8-1.3,2.8-2.8c0-1.5-1.3-2.8-2.8-2.8h-11.2v-44.5
					C107.5,135.5,108.9,136.2,110.4,137.2z M102.7,129.2c-5.3,0-8.1,1.7-10.5,3.2c-2.2,1.3-3.9,2.4-7.6,2.4c-3.7,0-5.5-1.1-7.6-2.4
					c-2-1.2-4.2-2.6-7.7-3v-5.8c0-3.1,2.5-5.6,5.6-5.6h55.9c3.1,0,5.6,2.5,5.6,5.6v5.8c-3.6,0.5-5.8,1.8-7.8,3
					c-2.2,1.3-3.9,2.4-7.6,2.4c-3.8,0-5.5-1.1-7.6-2.4C110.9,130.9,108.1,129.2,102.7,129.2z"/>
			</g>
		</g>
	</g>
	<path class="st0" d="M32,58.1l-7,16.3l-9-22.8l-5.3,2.1l11.6,29.1l3.7,1.6l29.1-11.6L53,67.6l-22.8,9L37,60.9
		c21.3-34.8,65.6-48.8,103.2-32.6c20.3,8.7,35.9,24.9,44.1,45.4l5.3-2.1c-8.7-21.9-25.5-39.2-47.1-48.5C102.2,5.7,54.8,20.8,32,58.1
		z"/>
</g>
</svg>
