<?xml version="1.0" encoding="utf-8"?>
<!-- Generator: Adobe Illustrator 16.0.0, SVG Export Plug-In . SVG Version: 6.00 Build 0)  -->
<!DOCTYPE svg PUBLIC "-//W3C//DTD SVG 1.1//EN" "http://www.w3.org/Graphics/SVG/1.1/DTD/svg11.dtd">
<svg version="1.1" id="圖層_1" xmlns="http://www.w3.org/2000/svg" xmlns:xlink="http://www.w3.org/1999/xlink" x="0px" y="0px"
	 width="200px" height="200px" viewBox="0 0 200 200" enable-background="new 0 0 200 200" xml:space="preserve">
<g>
	<path d="M10.8,136.1c0.5-3.1,0.8-6.199,1.4-9.199c2.1-10,7.1-18.5,14.3-25.699l73.5-73.5
		c9.4-9.4,20.6-14.7,33.9-15.6c0.398,0,0.8-0.2,1.199-0.3h4.399c3.3,0.5,6.7,0.8,10,1.6c20.2,5.5,33.3,18.3,38.101,38.6
		c4.399,18.6-0.601,35.1-14.101,48.7C149.1,125.4,124.398,149.9,99.799,174.4C89.7,184.5,77.4,190,63.1,190c-17,0-31-6.8-41.6-20.3
		c-6.4-8.2-9.9-17.601-10.6-28c0-0.4-0.2-0.8-0.3-1.2C10.8,139,10.8,137.5,10.8,136.1z M137.8,125.6c10.5-10.398,21-20.6,31.3-31.2
		c9.5-9.7,13.801-21.6,12.301-35.1c-2.199-19.1-12.699-32.2-31-38.1c-15.5-5-30.101-2-42.199,9C96.9,40.6,86.3,51.8,75.5,62.6
		c-0.2,0.2-0.2,0.4-0.2,0.4C96.2,84,117,104.8,137.8,125.6z M25.8,113.3c-1.3,2.601-2.6,5-3.8,7.4c-0.2,0.399-0.2,1-0.1,1.399
		c0.4,1.699-0.1,2.899-1.3,4c-0.3,0.301-0.6,0.699-0.7,1.199c-1.3,4.7-1.6,9.5-1.2,14.301c3.4,1.199,4.6,4.199,2.5,6.199
		c-1.4,1.301-1.1,2.301-0.7,3.602c3.2,9.898,9.1,17.8,17.7,23.6c3.1,2.1,6.5,3.5,10.1,5.5c-0.2-2.6,0.3-4.3,2.3-5
		c1.4-0.5,2.8-0.2,3.8,0.8c1.7,1.7,1.2,3.601,0.1,5.4c4.9,1.2,13.6,1.1,16.9-0.2c-1.2-2.2-1.2-3.6,0-5c1.1-1.2,2.4-1.6,3.9-1
		c2,0.7,2.6,2.4,2.4,4.5c0.9-0.3,1.7-0.6,2.5-0.9c5.7-2.398,10.6-6,15-10.3c12.1-12,24.1-24.1,36.2-36.2c0.398-0.398,0.8-0.898,1-1
		L70,69.201l-5.9,5.9c1.8,0.7,2.9,2.1,2.7,3.9c-0.2,1.7-1.4,3-3.1,3.3c-1.8,0.3-3.2-0.6-4.2-2.8c-2.2,2.2-4.4,4.5-6.6,6.7
		c2.2,1.2,3.1,2.5,2.8,4.3c-0.3,1.6-1.5,2.8-3.1,3c-2,0.2-3.1-0.6-4.2-2.9l-6.7,6.7c2.4,1.2,3.2,2.3,2.9,4.301
		c-0.2,1.699-1.3,2.699-2.9,3.1c-1.9,0.398-3.2-0.5-4.3-2.5c-2.2,2-4.6,4.199-7.1,6.398c2,0.5,3.1,1.801,3.2,3.7
		c0,1.601-0.7,2.8-2.3,3.4C28.7,116.3,27.2,115.2,25.8,113.3z"/>
	<path d="M93,108.3c-2,0-3.7-1.6-3.7-3.6s1.5-3.601,3.5-3.7c2.1-0.1,3.7,1.5,3.8,3.5C96.6,106.6,95,108.2,93,108.3
		L93,108.3z M92.8,145.5c2.1,0,3.7,1.6,3.7,3.6s-1.7,3.7-3.7,3.7c-1.9,0-3.6-1.6-3.6-3.6S90.8,145.6,92.8,145.5z M48.4,145.5
		c2.1,0,3.6,1.6,3.6,3.7c0,2-1.6,3.6-3.6,3.6s-3.7-1.7-3.7-3.6C44.6,147.2,46.3,145.5,48.4,145.5z M59.4,141.7
		c-2.1,0-3.6-1.7-3.6-3.8c0.1-2,1.7-3.5,3.6-3.602c2,0,3.7,1.7,3.7,3.7C63.1,140.1,61.4,141.7,59.4,141.7z M118.9,126.9
		c0,1.898-1.7,3.699-3.7,3.699c-1.9,0-3.7-1.801-3.7-3.699c0-1.9,1.8-3.7,3.7-3.7C117.1,123.2,118.9,125,118.9,126.9z M85.4,93.4
		c0,2-1.6,3.7-3.6,3.7s-3.7-1.7-3.7-3.7c0-1.9,1.7-3.6,3.6-3.7C83.6,89.7,85.4,91.4,85.4,93.4z M55.8,160.4c0-2.102,1.6-3.7,3.6-3.7
		s3.7,1.7,3.7,3.7c0,1.898-1.6,3.6-3.6,3.699C57.6,164.1,55.9,162.4,55.8,160.4z M70.7,145.5c2,0,3.7,1.8,3.6,3.8
		c-0.1,1.9-1.8,3.5-3.7,3.5c-2,0-3.7-1.7-3.7-3.7C67,147.1,68.6,145.5,70.7,145.5z M74.3,104.6c0,2-1.7,3.7-3.7,3.602
		c-2,0-3.7-1.7-3.6-3.801c0.1-2,1.7-3.5,3.6-3.601C72.6,100.9,74.3,102.6,74.3,104.6z M81.8,112.1c2,0,3.7,1.7,3.6,3.7
		c0,1.9-1.7,3.601-3.6,3.601c-1.9,0-3.7-1.699-3.8-3.699C78,113.8,79.8,112.1,81.8,112.1z M96.5,127c0,2-1.8,3.7-3.8,3.6
		c-1.9-0.1-3.5-1.699-3.6-3.6c0-2,1.7-3.7,3.7-3.7C94.9,123.2,96.6,124.9,96.5,127z M130,138.1c0,2.102-1.6,3.602-3.7,3.602
		c-2,0-3.6-1.602-3.6-3.602s1.7-3.699,3.7-3.699C128.3,134.4,130,136,130,138.1z M52,126.9c0,2-1.7,3.699-3.7,3.699
		s-3.7-1.801-3.6-3.801c0.1-1.898,1.7-3.6,3.6-3.6C50.3,123.2,52,124.9,52,126.9z M100.4,115.7c0-2,1.7-3.601,3.8-3.601
		c2,0.101,3.6,1.699,3.6,3.601c0,2-1.8,3.7-3.7,3.7C102,119.4,100.4,117.7,100.4,115.7z M37.2,141.7c-2,0-3.7-1.7-3.7-3.7
		c0.1-1.9,1.7-3.6,3.6-3.6c2,0,3.7,1.699,3.7,3.699C40.9,140,39.2,141.7,37.2,141.7z M115.2,145.5c2,0,3.7,1.7,3.7,3.7
		c0,1.899-1.7,3.6-3.602,3.6c-2,0-3.699-1.7-3.8-3.6C111.5,147.2,113.2,145.5,115.2,145.5z M74.3,126.9c0,1.898-1.8,3.699-3.7,3.699
		c-2,0-3.7-1.699-3.6-3.699c0-2,1.8-3.7,3.7-3.7C72.6,123.2,74.3,125,74.3,126.9z M81.7,141.7c-2,0-3.7-1.8-3.6-3.8
		c0.1-1.9,1.8-3.5,3.7-3.602c2,0,3.7,1.7,3.7,3.7C85.4,140.1,83.7,141.7,81.7,141.7z M104,141.7c-2.1,0-3.7-1.601-3.6-3.7
		c0-2,1.6-3.6,3.5-3.6c2-0.102,3.699,1.6,3.8,3.6C107.8,140,106.1,141.7,104,141.7z M37.3,164c-1.9,0.1-3.7-1.7-3.8-3.6
		c-0.1-1.9,1.6-3.7,3.6-3.7s3.7,1.6,3.8,3.6C40.9,162.2,39.2,164,37.3,164z M81.7,164c-1.9,0-3.7-1.8-3.7-3.8s1.8-3.7,3.8-3.601
		c1.9,0.101,3.5,1.699,3.6,3.601C85.4,162.3,83.7,164,81.7,164z M100.4,160.3c0-2,1.7-3.7,3.7-3.6c2,0.1,3.602,1.7,3.602,3.6
		c0,1.9-1.801,3.7-3.7,3.7C102,164,100.4,162.3,100.4,160.3z M52,171.4c0,2.1-1.6,3.699-3.6,3.699s-3.7-1.699-3.7-3.699
		c0-1.9,1.7-3.602,3.6-3.602C50.2,167.7,51.9,169.4,52,171.4z M74.3,171.5c0,2-1.8,3.7-3.8,3.6c-2,0-3.6-1.8-3.6-3.8
		c0.1-1.899,1.7-3.6,3.6-3.6C72.6,167.8,74.3,169.6,74.3,171.5z M55.8,115.7c0-2.101,1.7-3.601,3.7-3.601s3.6,1.601,3.6,3.601
		s-1.7,3.7-3.7,3.7C57.5,119.4,55.8,117.7,55.8,115.7z M96.5,171.5c0,2-1.7,3.7-3.7,3.6c-2,0-3.6-1.6-3.6-3.6s1.7-3.7,3.6-3.7
		C94.9,167.8,96.6,169.5,96.5,171.5z"/>
</g>
</svg>
