<?xml version="1.0" encoding="utf-8"?>
<!-- Generator: Adobe Illustrator 16.0.0, SVG Export Plug-In . SVG Version: 6.00 Build 0)  -->
<!DOCTYPE svg PUBLIC "-//W3C//DTD SVG 1.1//EN" "http://www.w3.org/Graphics/SVG/1.1/DTD/svg11.dtd">
<svg version="1.1" id="圖層_1" xmlns="http://www.w3.org/2000/svg" xmlns:xlink="http://www.w3.org/1999/xlink" x="0px" y="0px"
	 width="200px" height="200px" viewBox="0 0 200 200" enable-background="new 0 0 200 200" xml:space="preserve">
<path d="M119.544,123.414c-11.659-11.658-23.317-23.316-35.198-35.198c0.111-0.222,0.444-0.888,0.888-1.332
	c20.652-20.875,41.416-41.638,62.291-62.402c7.994-7.884,18.876-9.66,28.646-5.108c9.217,4.331,15.435,13.879,14.213,24.206
	c-0.555,5.107-2.332,10.993-5.772,14.545c-21.21,21.985-42.972,43.415-64.514,64.955
	C119.988,123.304,119.544,123.414,119.544,123.414z M113.437,98.765c1.556-1.221,2.334-1.666,2.889-2.332
	c18.432-18.432,36.863-36.752,55.184-55.184c0.667-0.667,1.555-1.333,1.777-2.11c0.223-1.333,0.556-3.331-0.111-3.886
	c-0.999-0.777-2.997-1.11-4.33-0.667c-1.222,0.333-2.332,1.777-3.331,2.776c-17.653,17.655-35.198,35.198-52.854,52.853
	c-1.11,1.11-2.108,2.442-3.665,4.219C110.439,95.878,111.771,97.099,113.437,98.765z M104.11,89.66
	c1.554-1.11,2.331-1.555,2.998-2.11c16.988-16.988,34.087-33.977,51.076-50.965c0.666-0.666,1.666-1.332,1.666-2.109
	c0-1.443,0-3.331-0.89-4.331c-0.555-0.666-2.664-0.444-3.886,0c-1.11,0.444-2,1.666-2.888,2.554
	c-16.212,16.211-32.423,32.423-48.633,48.634c-1.11,1.11-2,2.442-3.221,3.775C101.778,86.884,102.889,88.216,104.11,89.66z
	 M122.432,107.759c1.443-1.11,1.998-1.443,2.554-1.998c16.988-16.989,33.976-33.977,50.965-50.966
	c0.666-0.666,1.666-1.332,1.776-2.11c0.223-1.443,0.444-3.553-0.333-4.33c-0.888-0.777-2.998-0.667-4.33-0.222
	c-1.222,0.444-2.221,1.888-3.331,2.887c-16.323,16.323-32.645,32.645-48.967,48.967c-0.888,0.888-1.555,1.888-2.665,3.221
	C119.655,104.872,120.876,106.204,122.432,107.759z"/>
<path d="M11.951,43.025c5.33,5.663,9.882,10.77,14.656,15.545c8.661,8.661,20.653,8.883,28.647,0.777
	c7.994-8.105,7.772-19.431-0.777-28.203c-4.33-4.553-8.883-8.772-13.436-13.324c10.993-5.663,30.202,0.888,39.862,13.324
	c11.881,15.545,11.215,36.975-1.666,51.631c-12.658,14.323-34.532,17.543-51.076,7.439C12.506,80.555,5.178,60.902,11.951,43.025z"
	/>
<path d="M110.661,143.4c10.215-10.104,20.431-20.207,30.534-30.2c10.883,10.77,22.32,21.431,33.09,32.867
	c7.884,8.327,6.883,21.54-1.11,29.646c-7.884,7.883-21.097,9.325-29.203,1.776C132.425,166.607,121.765,154.838,110.661,143.4z
	 M168.066,160.945c0-5.331-4.664-9.993-9.882-9.883c-4.885,0.11-9.549,4.774-9.659,9.66c-0.112,5.107,4.663,10.104,9.771,10.104
	C163.515,171.049,168.066,166.385,168.066,160.945z"/>
<path d="M56.92,138.849c9.771-9.993,19.431-19.653,29.202-29.535c3.664,3.887,7.217,7.551,11.215,11.77
	c-9.771,9.549-19.542,19.32-29.313,28.869c2.776,5.107,1.776,9.105-3.109,12.214c-11.659,7.439-23.539,14.657-36.086,22.317
	c-1.776-2.331-3.553-4.662-5.773-7.659c7.106-11.438,14.656-23.873,22.429-36.087C48.038,136.738,52.035,136.295,56.92,138.849z"/>
</svg>
