<?xml version="1.0" encoding="utf-8"?>
<!-- Generator: Adobe Illustrator 21.1.0, SVG Export Plug-In . SVG Version: 6.00 Build 0)  -->
<svg version="1.1" id="圖層_1" xmlns="http://www.w3.org/2000/svg" xmlns:xlink="http://www.w3.org/1999/xlink" x="0px" y="0px"
	 viewBox="0 0 200 200" style="enable-background:new 0 0 200 200;" xml:space="preserve">
<path d="M109,181V40.6l47.7,47.7c3.6,3.6,9,3.6,12.6,0c3.6-3.6,3.6-9,0-12.6l-63-63c-3.6-3.6-9-3.6-12.6,0l-63,63
	C28.9,77.5,28,80.2,28,82c0,2.7,0.9,4.5,2.7,6.3c3.6,3.6,9,3.6,12.6,0L91,40.6V181c0,5.4,3.6,9,9,9C105.4,190,109,185.5,109,181z"/>
</svg>
