<?xml version="1.0" encoding="utf-8"?>
<!-- Generator: Adobe Illustrator 21.1.0, SVG Export Plug-In . SVG Version: 6.00 Build 0)  -->
<svg version="1.1" id="圖層_1" xmlns="http://www.w3.org/2000/svg" xmlns:xlink="http://www.w3.org/1999/xlink" x="0px" y="0px"
	 viewBox="0 0 200 200" style="enable-background:new 0 0 200 200;" xml:space="preserve">
<style type="text/css">
	.st0{fill:#231815;}
</style>
<g>
	<g>
		<g>
			<path class="st0" d="M143.2,55.7c4.3-5.5,5-12.3,2.2-19.9c-2-5.4-5.3-9.3-5.4-9.4c-1-1.3-2.9-1.4-4.2-0.4c-1.3,1-1.4,2.9-0.4,4.2
				c0.1,0.2,10.3,12.7,3.1,21.8c-10.4,13.2,0.7,30.6,1.2,31.4c0.6,0.9,1.5,1.4,2.5,1.4c0.6,0,1.1-0.2,1.6-0.5
				c1.4-0.9,1.8-2.7,0.9-4.1C144.6,80.1,135.4,65.6,143.2,55.7z"/>
		</g>
	</g>
	<g>
		<g>
			<path class="st0" d="M163.1,55.7c4.3-5.5,5-12.3,2.2-19.9c-2-5.4-5.3-9.3-5.4-9.4c-1-1.3-2.9-1.4-4.2-0.4c-1.3,1-1.4,2.9-0.4,4.2
				c0.1,0.1,10.3,12.6,3.1,21.8c-10.4,13.2,0.7,30.6,1.2,31.4c0.6,0.9,1.5,1.4,2.5,1.4c0.6,0,1.1-0.2,1.6-0.5
				c1.4-0.9,1.8-2.7,0.9-4.1C164.5,80.1,155.3,65.6,163.1,55.7z"/>
		</g>
	</g>
	<g>
		<g>
			<path class="st0" d="M38.6,57.1c4.3-5.5,5-12.3,2.2-19.9c-2-5.4-5.3-9.3-5.4-9.4c-1-1.3-2.9-1.4-4.2-0.4c-1.3,1-1.4,2.9-0.4,4.2
				c0.1,0.1,10.3,12.6,3.1,21.8c-10.4,13.2,0.7,30.6,1.2,31.4c0.6,0.9,1.5,1.4,2.5,1.4c0.6,0,1.1-0.2,1.6-0.5
				c1.4-0.9,1.8-2.7,0.9-4.1C40,81.5,30.8,67,38.6,57.1z"/>
		</g>
	</g>
	<g>
		<g>
			<path class="st0" d="M58.5,57.1c4.3-5.5,5-12.3,2.2-19.9c-2-5.4-5.3-9.3-5.4-9.4c-1-1.3-2.9-1.4-4.2-0.4c-1.3,1-1.4,2.9-0.4,4.2
				c0.1,0.1,10.3,12.6,3.1,21.8C43.5,66.6,54.5,84.1,55,84.8c0.6,0.9,1.5,1.4,2.5,1.4c0.6,0,1.1-0.2,1.6-0.5
				c1.4-0.9,1.8-2.7,0.9-4.1C59.9,81.5,50.7,67,58.5,57.1z"/>
		</g>
	</g>
	<g>
		<g>
			<path class="st0" d="M180,150.3h-6.3c-1.5-37-30.4-67-67-70.2v-3c3.7-2.2,6-6.2,6-10.6c0-6.8-5.6-12.4-12.4-12.4c0,0-0.2,0-0.3,0
				c-6.8,0-12.4,5.6-12.4,12.4c0,4.4,2.3,8.4,6,10.6v3c-36.5,3.2-65.5,33.2-67,70.2h-6.3c-5.4,0-9.8,4.4-9.8,9.8v3.7
				c0,5.4,4.4,9.8,9.8,9.8H180c5.4,0,9.8-4.4,9.8-9.8v-3.7C189.8,154.7,185.4,150.3,180,150.3z M93.5,66.4c0-3.6,2.9-6.5,6.5-6.5
				c0,0,0.2,0,0.3,0c3.6,0,6.5,2.9,6.5,6.5c0,2.7-1.6,5-4.1,6c-1.1,0.4-1.9,1.5-1.9,2.8v4.6h-1.2v-4.6c0-1.2-0.7-2.3-1.9-2.8
				C95.1,71.5,93.5,69.1,93.5,66.4z M180,167.7H20.3c-2.2,0-3.9-1.8-3.9-3.9v-3.7c0-2.2,1.8-3.9,3.9-3.9h4.9c0,0,0.1,0,0.1,0h106.5
				c1.6,0,3-1.3,3-3c0-1.6-1.3-3-3-3H32.6c1.6-35.8,31.1-64.4,67.2-64.5h0.8c36.1,0.1,65.6,28.8,67.2,64.5H151c-1.6,0-3,1.3-3,3
				c0,1.6,1.3,3,3,3l22.9,0h6.1c2.2,0,3.9,1.8,3.9,3.9v3.7h0C183.9,166,182.1,167.7,180,167.7z"/>
		</g>
	</g>
</g>
</svg>
