<?xml version="1.0" encoding="utf-8"?>
<!-- Generator: Adobe Illustrator 21.1.0, SVG Export Plug-In . SVG Version: 6.00 Build 0)  -->
<svg version="1.1" id="Layer_1" xmlns="http://www.w3.org/2000/svg" xmlns:xlink="http://www.w3.org/1999/xlink" x="0px" y="0px"
	 viewBox="0 0 200 200" style="enable-background:new 0 0 200 200;" xml:space="preserve">
<g>
	<path d="M147.1,43.6h-1.9v9.7h1.9c2.3,0,4.2,1.9,4.2,4.2v119.1c0,2.3-1.9,4.2-4.2,4.2H53.9c-2.3,0-4.2-1.9-4.2-4.2V57.5
		c0-2.3,1.9-4.2,4.2-4.2h1.9v-9.7h-1.9c-7.6,0-13.9,6.2-13.9,13.9v119.1c0,7.6,6.2,13.9,13.9,13.9h93.3c7.6,0,13.9-6.2,13.9-13.9
		V57.5C161,49.9,154.8,43.6,147.1,43.6z"/>
	<rect x="64.4" y="122.6" width="16.6" height="9.7"/>
	<rect x="92.2" y="122.6" width="16.6" height="9.7"/>
	<rect x="119.9" y="122.6" width="16.6" height="9.7"/>
	<rect x="64.4" y="142" width="16.6" height="9.7"/>
	<rect x="92.2" y="142" width="16.6" height="9.7"/>
	<rect x="119.9" y="142" width="16.6" height="9.7"/>
	<rect x="64.4" y="161.4" width="16.6" height="9.7"/>
	<rect x="92.2" y="161.4" width="16.6" height="9.7"/>
	<rect x="119.9" y="161.4" width="16.6" height="9.7"/>
	<path d="M136.6,82.5H64.4v27.2h72.1V82.5z M126.9,100H74.1v-7.8h52.7V100z"/>
	<path d="M62.3,72.5h76.5c2.7,0,4.9-2.2,4.9-4.9s-2.2-4.9-4.9-4.9h-2V9.6H87l-0.1-0.1l-0.1,0.1h-0.1l-5.8,5.2L64.2,29.3l0.1,0.1
		l-0.1,0.1v33.2h-2c-2.7,0-4.9,2.2-4.9,4.9S59.6,72.5,62.3,72.5z M88.6,20.9v12.5H74.3L88.6,20.9z M74,43.1h24.3V19.3H127v43.5H74
		V43.1z"/>
</g>
</svg>
