<?xml version="1.0" encoding="utf-8"?>
<!-- Generator: Adobe Illustrator 16.0.0, SVG Export Plug-In . SVG Version: 6.00 Build 0)  -->
<!DOCTYPE svg PUBLIC "-//W3C//DTD SVG 1.1//EN" "http://www.w3.org/Graphics/SVG/1.1/DTD/svg11.dtd">
<svg version="1.1" id="圖層_1" xmlns="http://www.w3.org/2000/svg" xmlns:xlink="http://www.w3.org/1999/xlink" x="0px" y="0px"
	 width="200px" height="200px" viewBox="0 0 200 200" enable-background="new 0 0 200 200" xml:space="preserve">
<path d="M88.755,184.989c-7.854,0-14.497-3.122-18.706-8.794c-5.225-7.038-6.176-17.285-2.677-28.854
	c1.818-6.001,4.081-10.035,6.269-13.938c2.872-5.121,5.841-10.418,8.366-21.122c4.134-17.639,14.954-28.173,28.94-28.173
	c7.736,0,16.043,3.299,24.018,9.541c8.684,6.814,14.32,9.063,19.771,11.239c4.152,1.655,8.445,3.367,13.621,6.91
	c12.435,8.471,18.154,19.852,15.295,30.436c-3.146,11.648-15.818,19.641-33.071,20.855c-17.879,1.25-22.397,2.842-37.203,13.1
	C105.064,181.945,96.55,184.989,88.755,184.989z M110.948,92.109c-10.166,0-17.876,8.02-21.154,22.004
	c-2.785,11.806-6.181,17.861-9.176,23.203c-2.159,3.852-4.024,7.178-5.59,12.344c-2.747,9.081-2.234,16.813,1.444,21.768
	c2.701,3.639,6.948,5.563,12.282,5.563c6.16,0,13.1-2.551,20.066-7.377c15.867-10.993,22.029-13.162,41.199-14.504
	c13.75-0.969,23.679-6.701,25.908-14.961c1.959-7.252-2.443-15.176-12.082-21.742c-4.453-3.047-7.984-4.456-12.074-6.088
	c-5.699-2.272-12.158-4.85-21.742-12.372C123.48,94.82,116.88,92.109,110.948,92.109z M49.75,144.986
	c-7.506,0-16.524-4.079-24.125-10.912c-5.767-5.186-10.104-11.356-12.213-17.377c-2.397-6.846-1.717-12.838,1.915-16.873
	c2.597-2.886,6.409-4.411,11.023-4.411c7.506,0,16.524,4.079,24.124,10.912c5.767,5.185,10.105,11.356,12.214,17.378
	c2.397,6.845,1.717,12.838-1.915,16.873C58.176,143.462,54.364,144.986,49.75,144.986z M26.35,103.413
	c-1.592,0-3.766,0.306-5.077,1.763c-1.564,1.738-1.677,4.975-0.311,8.877c1.648,4.704,5.297,9.833,10.012,14.072
	c6.08,5.467,13.274,8.861,18.776,8.861c1.592,0,3.766-0.305,5.077-1.762c1.564-1.738,1.678-4.975,0.311-8.877
	c-1.648-4.705-5.297-9.834-10.012-14.074C39.046,106.809,31.852,103.413,26.35,103.413z M75.947,101.909L75.947,101.909
	c-9.003-0.001-19.74-7.247-27.356-18.461c-6.722-9.718-9.811-20.522-8.242-28.871c0.825-4.392,2.938-7.847,6.112-9.991
	c2.299-1.554,4.998-2.342,8.019-2.342c9.011,0,19.775,7.222,27.422,18.397c6.73,9.73,9.818,20.534,8.25,28.883
	c-0.825,4.392-2.938,7.847-6.112,9.991C81.745,101.096,79.012,101.909,75.947,101.909z M54.479,50.244
	c-1.396,0-2.587,0.327-3.54,0.971c-1.382,0.934-2.3,2.562-2.728,4.839c-1.147,6.106,1.592,15.083,6.978,22.871
	c5.999,8.833,14.527,14.983,20.757,14.984h0.001c1.413,0,2.618-0.337,3.583-1.002c1.413-0.955,2.331-2.583,2.759-4.86
	c1.147-6.106-1.592-15.083-6.978-22.871C69.29,56.377,60.729,50.244,54.479,50.244L54.479,50.244z M167.139,101.008
	c-0.662,0-1.328-0.054-1.979-0.16c-3.532-0.574-6.681-2.663-9.103-6.04c-4.529-6.312-6.175-16.43-4.402-27.065
	c2.613-15.789,11.617-27.25,21.408-27.25c0.662,0,1.328,0.054,1.979,0.16c10.272,1.82,16.181,16.346,13.508,33.079
	C185.934,89.545,176.93,101.008,167.139,101.008z M173.063,48.492c-4.885,0-11.479,8.262-13.517,20.561
	c-1.388,8.331-0.206,16.608,3.011,21.091c1.172,1.634,2.479,2.579,3.885,2.807c0.229,0.037,0.465,0.056,0.697,0.056
	c4.885,0,11.479-8.262,13.516-20.561c2.015-12.612-2.008-23.032-6.951-23.909C173.49,48.507,173.276,48.492,173.063,48.492
	L173.063,48.492z M122.389,83.428h-0.002c-10.9,0-20.219-13.588-21.673-31.606c-1.382-18.647,6.339-33.926,17.573-34.81
	c0.343-0.027,0.686-0.04,1.027-0.04c11.013,0,20.33,13.598,21.676,31.63c1.379,18.623-6.342,33.902-17.576,34.785
	C123.07,83.415,122.729,83.428,122.389,83.428z M119.313,24.972c-0.133,0-0.267,0.005-0.399,0.016
	c-5.722,0.45-11.327,11.328-10.224,26.217c1.168,14.479,8.025,24.223,13.697,24.223c0.133,0,0.266-0.005,0.398-0.016
	c5.722-0.45,11.328-11.327,10.225-26.217C131.947,34.921,124.938,24.972,119.313,24.972z"/>
</svg>
