<?xml version="1.0" encoding="utf-8"?>
<!-- Generator: Adobe Illustrator 21.1.0, SVG Export Plug-In . SVG Version: 6.00 Build 0)  -->
<svg version="1.1" id="圖層_1" xmlns="http://www.w3.org/2000/svg" xmlns:xlink="http://www.w3.org/1999/xlink" x="0px" y="0px"
	 viewBox="0 0 200 200" style="enable-background:new 0 0 200 200;" xml:space="preserve">
<g>
	<circle cx="39.5" cy="152.5" r="3.5"/>
	<path d="M187.9,128.2c-3-6.9-11.1-10-18-7c0,0,0,0-0.1,0l-22.7,10.5c-1.8,0.8-2.5,2.9-1.7,4.7c0.8,1.8,2.9,2.5,4.7,1.7l22.6-10.4
		c3.3-1.5,7.2,0.1,8.7,3.4c0.7,1.6,0.8,3.4,0.1,5.1c-0.6,1.6-1.9,2.9-3.5,3.7l-46.4,20.5c-7.3,3.2-15.7,3.1-22.9-0.5l-17-8.4
		c-9.1-4.5-19.6-4.7-28.8-0.7l-0.3,0.1l-12.7-28.7l17.6-7.8c8.4-3.7,17.7-4,26.4-0.8l34.2,12.5c3.1,1.1,4.7,4.6,3.7,7.7
		c-1.1,3.2-4.6,4.9-7.7,3.8l-26.4-8.9c-1.8-0.6-3.8,0.4-4.5,2.2c-0.6,1.8,0.4,3.8,2.2,4.5l26.4,8.9c1.4,0.5,2.8,0.7,4.2,0.7
		c5.5,0,10.6-3.4,12.5-8.9c2.3-6.7-1.3-14.1-7.9-16.6L96.4,107c-10.3-3.8-21.6-3.4-31.6,1l-17.7,7.8c-1-1.5-2.4-2.7-4.2-3.4
		c-2.2-0.9-4.6-0.8-6.8,0.2l-22.6,10c-1.3,0.6-2.1,1.8-2.1,3.2L11.2,187c0,1.2,0.6,2.4,1.7,3c0.6,0.3,1.2,0.5,1.8,0.5
		c0.5,0,1.1-0.1,1.6-0.4l44.2-22.3c2.1-1,3.7-2.7,4.6-4.9c0.7-1.8,0.8-3.7,0.3-5.5l0.4-0.2c7.3-3.2,15.7-3.1,22.9,0.5l17,8.4
		c9.1,4.5,19.6,4.7,28.8,0.7l46.4-20.5C187.9,143.1,191,135.1,187.9,128.2z M58.7,160.2c-0.2,0.4-0.5,0.8-1,1
		c-0.1,0-39.4,19.9-39.4,19.9V166l10.2-5c1.7-0.9,2.5-3,1.6-4.7c-0.9-1.7-3-2.5-4.7-1.6l-7.1,3.5l0.1-30.2l20.5-9.1
		c0.4-0.2,0.9-0.2,1.4,0c0.5,0.2,0.8,0.5,1,1l17.2,39C58.8,159.3,58.8,159.8,58.7,160.2z"/>
	<path d="M139.1,105.7c26.3,0,47.7-21.4,47.7-47.7s-21.4-47.7-47.7-47.7c-26.3,0-47.7,21.4-47.7,47.7S112.8,105.7,139.1,105.7z
		 M139.1,17.4c22.5,0,40.7,18.3,40.7,40.7c0,22.4-18.3,40.7-40.7,40.7c-22.5,0-40.7-18.3-40.7-40.7C98.4,35.7,116.7,17.4,139.1,17.4
		z"/>
	<path d="M135,64.8h5.7c3.9,0,6.9-0.2,9-0.6c1.5-0.3,3-1,4.5-2c1.5-1,2.7-2.4,3.6-4.2c1-1.8,1.4-4,1.4-6.7c0-3.4-0.8-6.2-2.5-8.4
		c-1.7-2.2-3.7-3.6-6.2-4.2c-1.6-0.4-5-0.6-10.3-0.6h-13.9V81h8.7V64.8z M135,45.3h4.2c3.1,0,5.2,0.1,6.2,0.3
		c1.4,0.3,2.6,0.9,3.5,1.9c0.9,1,1.4,2.3,1.4,3.9c0,1.3-0.3,2.4-1,3.3c-0.7,1-1.6,1.7-2.7,2.1c-1.2,0.4-3.4,0.7-6.9,0.7H135V45.3z"
		/>
</g>
</svg>
