<?xml version="1.0" encoding="utf-8"?>
<!-- Generator: Adobe Illustrator 16.0.0, SVG Export Plug-In . SVG Version: 6.00 Build 0)  -->
<!DOCTYPE svg PUBLIC "-//W3C//DTD SVG 1.1//EN" "http://www.w3.org/Graphics/SVG/1.1/DTD/svg11.dtd">
<svg version="1.1" id="圖層_1" xmlns="http://www.w3.org/2000/svg" xmlns:xlink="http://www.w3.org/1999/xlink" x="0px" y="0px"
	 width="200px" height="200px" viewBox="0 0 200 200" enable-background="new 0 0 200 200" xml:space="preserve">
<path d="M104.4,170.4C73.5,170.4,48.3,145.2,48.3,114.3c0-30.9,25.2-56.1,56.101-56.1
	c30.899,0,56.101,25.2,56.101,56.1C160.5,145.3,135.4,170.4,104.4,170.4z M104.4,64.8c-27.3,0-49.5,22.2-49.5,49.5
	s22.2,49.5,49.5,49.5c27.3,0,49.5-22.2,49.5-49.5S131.7,64.8,104.4,64.8z"/>
<path d="M104.4,153.9c-10.602,0-20.5-4.102-28-11.602c-1.298-1.295-1.3-3.396-0.005-4.695
	c0.002-0.002,0.003-0.003,0.005-0.004c1.3-1.301,3.4-1.301,4.7,0c6.2,6.199,14.5,9.699,23.3,9.699c18.199,0,33-14.8,33-33
	c0-9.699-4.2-18.8-11.602-25.1c-1.398-1.2-1.6-3.3-0.398-4.7c1.199-1.4,3.3-1.5,4.699-0.4c8.801,7.5,13.899,18.5,13.899,30.1
	C144,136.2,126.3,153.9,104.4,153.9z M68.1,117.6c-1.8,0-3.3-1.5-3.3-3.3c0-21.8,17.8-39.6,39.601-39.6c1.801,0,3.301,1.5,3.301,3.3
	s-1.5,3.3-3.301,3.3c-18.199,0-33,14.8-33,33C71.4,116.1,69.9,117.6,68.1,117.6L68.1,117.6z M31.8,71.4c-2.7,0-7.4-1.7-10.7-3.3
	l-1.4-0.7c-4.3-2.2-7.7-7.7-7.7-12.5v-33c0-1.8,1.5-3.3,3.3-3.3c1.8,0,3.3,1.5,3.3,3.3v33c0,2.4,2,5.5,4.1,6.6l1.4,0.7
	c3.1,1.6,6.7,2.6,7.7,2.6s4.6-1,7.7-2.6l1.4-0.7c2.1-1.1,4.1-4.2,4.1-6.6v-33c0-1.8,1.5-3.3,3.3-3.3c1.8,0,3.3,1.5,3.3,3.3v33
	c0,4.9-3.4,10.3-7.7,12.5l-1.4,0.7C39.2,69.7,34.5,71.4,31.8,71.4L31.8,71.4z"/>
<path d="M31.8,71.4c-1.8,0-3.3-1.5-3.3-3.3V21.9c0-1.8,1.5-3.3,3.3-3.3c1.8,0,3.3,1.5,3.3,3.3v46.2
	C35.1,69.9,33.6,71.4,31.8,71.4z"/>
<path d="M31.8,190.2c-5.4,0-13.2-8.2-13.2-23.101c0-9,2.8-23.301,5.4-37c2.3-11.899,4.5-23.101,4.5-29V71.4
	c0-1.8,1.5-3.3,3.3-3.3c1.8,0,3.3,1.5,3.3,3.3v29.7c0,2.301,1.6,10.801,3.2,19.801c3,16,6.7,35.8,6.7,46.199
	C45,182,37.2,190.2,31.8,190.2z M32.1,123.2c-0.5,2.7-1,5.399-1.6,8.2c-2.6,13.5-5.3,27.398-5.3,35.699
	c0,11.399,5.3,16.301,6.7,16.5c1.2-0.199,6.5-5.199,6.5-16.5C38.4,157.6,34.8,138,32.1,123.2z M180.3,190.2c-8,0-16.5-4.3-16.5-16.5
	c0-4.8,0.7-9.601,1.5-14.601c0.9-5.699,1.8-11.601,1.8-18.399v-19.5c-0.1-1-0.1-3.2,1.602-5.4c0.898-1.1,2-2,3.5-2.7
	c-3.2-5.5-8.301-18.1-8.301-41.6c0-54,21.5-59.1,22.399-59.3c1-0.2,2,0,2.8,0.7c0.801,0.6,1.2,1.6,1.2,2.6V177
	C190.2,181.6,188.2,190.2,180.3,190.2z M183.6,117.6c-7.1,0-9.1,1.602-9.6,2.102c-0.3,0.3-0.3,0.6-0.3,0.6
	c0.2,0.4,0.1,0.102,0.1,0.602v19.8c0,7.3-1,13.7-1.899,19.399c-0.699,4.801-1.399,9.301-1.399,13.601c0,8.2,5.399,9.899,9.899,9.899
	c3.101,0,3.301-6.601,3.301-6.601v-59.399H183.6V117.6z M183.6,21.1c-5.1,4.7-13.199,17.3-13.199,50.3c0,25.8,6.399,37,8.399,39.9
	c1.5-0.2,3-0.3,4.8-0.3V21.1z"/>
</svg>
