<?xml version="1.0" encoding="utf-8"?>
<!-- Generator: Adobe Illustrator 16.0.0, SVG Export Plug-In . SVG Version: 6.00 Build 0)  -->
<!DOCTYPE svg PUBLIC "-//W3C//DTD SVG 1.1//EN" "http://www.w3.org/Graphics/SVG/1.1/DTD/svg11.dtd">
<svg version="1.1" id="圖層_1" xmlns="http://www.w3.org/2000/svg" xmlns:xlink="http://www.w3.org/1999/xlink" x="0px" y="0px"
	 width="200px" height="200px" viewBox="0 0 200 200" enable-background="new 0 0 200 200" xml:space="preserve">
<g>
	<path d="M174.2,27.1h-131c-1.4,0-2.7,0.7-3.5,1.7L13.5,55.1c-0.5,0.4-0.9,0.9-1.2,1.4l-0.1,0.2
		c-0.3,0.7-0.5,1.3-0.5,2.1v11.4c0,7.1,4.7,13.4,11.6,15.4v73.1c0,8.899,7.2,16.1,16.1,16.1h134.8c8.899,0,16.1-7.2,16.1-16.1V43.2
		C190.3,34.3,183.1,27.1,174.2,27.1L174.2,27.1z M174.2,165.7H138.6c1.102-2.2,1.602-4.601,1.602-7V36.3H174.1c3.801,0,7,3.1,7,7
		v115.5C181.1,162.6,178,165.7,174.2,165.7L174.2,165.7z M65.6,132.5v33.2H51.7v-33.2H65.6z M34.8,63.2v7c0,3.8-3.1,7-7,7
		c-3.8,0-7-3.1-7-7v-7H34.8z M70.2,123.4H47.1c-2.5,0-4.6,2.1-4.6,4.6v37.8h-3.1c-3.8,0-7-3.1-7-7V85.6c2.6-0.8,5-2.2,6.9-4.3
		c3.1,3.2,7.2,5,11.6,5c4.3,0,8.5-1.8,11.6-5c3.1,3.2,7.2,5,11.6,5c4.3,0,8.5-1.8,11.6-5c3.1,3.2,7.2,5,11.6,5
		c8.9,0,16.101-7.2,16.101-16.1v-9.8l17.801-17.8v116.1c0,3.8-3.102,7-7,7H74.8V128C74.8,125.4,72.7,123.4,70.2,123.4L70.2,123.4z
		 M104.1,70.2c0,3.8-3.1,7-7,7c-3.8,0-7-3.1-7-7v-7H104L104.1,70.2z M81,70.2c0,3.8-3.1,7-7,7c-3.8,0-7-3.1-7-7v-7h14V70.2z
		 M57.9,70.2c0,3.8-3.1,7-7,7c-3.8,0-7-3.1-7-7v-7h13.9v7H57.9z M96.5,54.1l17.8-17.8h10.4l-17.8,17.8H96.5z M73.4,54.1l17.8-17.8
		H101.6L83.8,54.1H73.4z M50.3,54.1l17.8-17.8h10.4L60.7,54.1H50.3z M27.2,54.1L45,36.3h10.4L37.6,54.1H27.2z"/>
	<path d="M85.6,132.5h30.8c2.5,0,4.6-2.1,4.6-4.6v-27c0-2.5-2.1-4.6-4.6-4.6H85.6c-2.5,0-4.6,2.1-4.6,4.6v27
		C81,130.5,83.1,132.5,85.6,132.5z M90.2,123.4V105.6h21.6V123.4H90.2L90.2,123.4z"/>
</g>
</svg>
